<svg width="14" height="14" viewBox="0 0 14 14" fill="none" xmlns="http://www.w3.org/2000/svg">
<path fill-rule="evenodd" clip-rule="evenodd" d="M7.00004 13.6667C3.31804 13.6667 0.333374 10.682 0.333374 7.00001C0.333374 3.31801 3.31804 0.333344 7.00004 0.333344C10.682 0.333344 13.6667 3.31801 13.6667 7.00001C13.6667 10.682 10.682 13.6667 7.00004 13.6667ZM7.00004 12.3333C9.94556 12.3333 12.3334 9.94553 12.3334 7.00001C12.3334 4.05449 9.94556 1.66668 7.00004 1.66668C4.05452 1.66668 1.66671 4.05449 1.66671 7.00001C1.66671 9.94553 4.05452 12.3333 7.00004 12.3333ZM6.33337 3.66668H7.66671V5.00001H6.33337V3.66668ZM6.33337 6.33334H7.66671V10.3333H6.33337V6.33334Z" fill="#222222"/>
</svg>
